<svg width="35" height="44" viewBox="0 0 35 44" fill="none" xmlns="http://www.w3.org/2000/svg">
<g clip-path="url(#clip0)">
<path d="M13.4897 24.3266V36.9612C13.4897 38.1981 14.7107 39.4351 15.9318 39.4351H17.8797L18.3739 39.9357V42.6452L17.8797 43.1459H0.494234L0 42.6452V39.9357L0.494234 39.4351H2.4421C3.66315 39.4351 4.8842 38.1981 4.8842 36.9612V6.15529C4.8842 4.91834 3.66315 3.68139 2.4421 3.68139H0.494234L0 3.21017V0.500669L0.494234 0H31.8054L32.416 0.618474V2.4739L29.3633 9.98394H26.805L26.3107 9.48327C25.8165 5.91968 23.9268 3.68139 20.6416 3.68139H15.9318C14.7107 3.68139 13.4897 4.91834 13.4897 6.15529V20.6452H20.2345C21.4556 20.6452 22.6766 19.3494 22.6766 18.1714V17.4351L23.1709 16.9344H25.8456L26.3398 17.4351V27.5368L25.8456 28.0375H23.1709L22.6766 27.5368V26.8005C22.6766 25.5636 21.4556 24.3266 20.2345 24.3266H13.4897Z" fill="#EC1C24"/>
<path d="M30.2355 34.5166C32.8521 34.5166 34.9744 36.6665 34.9744 39.3171C34.9744 41.9088 32.8521 43.9999 30.2355 43.9999C27.6771 43.9999 25.613 41.9088 25.613 39.3171C25.613 36.6665 27.6771 34.5166 30.2355 34.5166Z" fill="#EC1C24"/>
</g>
<defs>
<clipPath id="clip0">
<rect width="34.9744" height="44" fill="white"/>
</clipPath>
</defs>
</svg>
