<?xml version="1.0" standalone="no"?>
<!DOCTYPE svg PUBLIC "-//W3C//DTD SVG 20010904//EN"
 "http://www.w3.org/TR/2001/REC-SVG-20010904/DTD/svg10.dtd">
<svg version="1.0" xmlns="http://www.w3.org/2000/svg"
 width="704.000000pt" height="704.000000pt" viewBox="0 0 704.000000 704.000000"
 preserveAspectRatio="xMidYMid meet">
<metadata>
Created by potrace 1.11, written by Peter Selinger 2001-2013
</metadata>
<g transform="translate(0.000000,704.000000) scale(0.100000,-0.100000)"
fill="#000000" stroke="none">
<path d="M758 6999 l-38 -41 0 -215 0 -216 38 -38 39 -37 199 -4 c193 -3 201
-4 254 -30 113 -56 197 -150 230 -256 l21 -67 0 -2510 c0 -2711 4 -2528 -50
-2634 -48 -92 -186 -200 -278 -215 -15 -2 -105 -5 -200 -5 l-171 -1 -41 -38
-41 -38 0 -220 0 -220 40 -39 40 -39 1387 0 1388 -1 43 39 42 39 0 219 0 220
-39 38 -39 39 -188 2 c-104 1 -200 6 -214 12 -107 42 -179 98 -235 183 -20 30
-38 61 -39 67 -1 7 -5 17 -9 23 -17 28 -29 406 -13 432 3 6 3 13 -1 15 -10 6
-9 260 1 276 4 6 4 11 -1 11 -10 0 -9 162 0 178 4 6 4 13 0 15 -10 6 -8 140 1
156 4 6 4 11 -1 11 -10 0 -9 122 0 138 4 6 4 13 0 15 -5 3 -7 40 -5 84 1 43 3
83 2 88 0 6 -1 66 -2 133 -2 68 0 126 5 129 4 2 4 9 0 15 -8 14 -10 139 -2
144 5 3 4 39 -1 54 -6 17 -4 168 3 183 4 9 4 17 -2 17 -5 0 -7 9 -4 19 5 19
18 20 572 17 311 -1 577 -5 590 -9 108 -30 217 -122 269 -229 30 -62 34 -77
39 -186 4 -91 5 -94 41 -130 l37 -37 213 -1 213 0 42 38 41 39 1 797 c1 438
-2 806 -6 817 -4 11 -22 35 -39 53 l-32 32 -218 0 -217 0 -35 -38 c-34 -37
-36 -43 -41 -128 -3 -49 -8 -102 -11 -117 -8 -35 -57 -127 -68 -127 -4 0 -8
-5 -8 -12 0 -6 -23 -33 -51 -59 -54 -51 -132 -94 -189 -105 -53 -10 -1131 -10
-1137 0 -9 13 -9 57 -1 88 3 15 3 30 0 32 -9 5 -7 140 2 155 4 6 4 11 -1 11
-10 0 -9 122 0 138 4 6 4 13 0 15 -5 3 -7 40 -5 84 3 99 3 88 0 156 -2 32 0
61 4 64 5 2 5 10 1 16 -10 16 -10 128 0 150 4 9 4 17 0 17 -10 0 -9 122 0 138
4 6 4 13 0 15 -5 3 -7 40 -5 84 1 43 3 83 2 88 0 6 -1 66 -2 133 -2 68 0 126
5 129 4 2 4 9 0 15 -9 16 -10 139 0 145 4 2 5 8 2 13 -9 14 -10 164 -2 177 4
6 4 14 0 16 -10 6 -9 220 1 236 4 6 4 11 -1 11 -10 0 -8 169 2 237 7 48 37
126 59 149 6 7 22 28 35 46 37 51 130 116 194 136 12 4 243 7 512 7 471 0 493
-1 570 -22 44 -11 91 -26 105 -31 14 -5 27 -9 30 -8 3 0 20 -9 38 -22 17 -13
32 -21 32 -18 0 4 30 -16 68 -43 72 -54 131 -112 178 -176 16 -22 31 -42 35
-45 12 -10 109 -216 109 -231 0 -8 4 -19 9 -25 6 -7 36 -111 46 -164 1 -3 5
-25 10 -50 5 -25 10 -48 11 -52 1 -5 2 -14 3 -21 0 -7 18 -31 38 -52 l38 -40
207 -1 207 0 45 110 c25 61 87 212 137 336 50 124 96 236 101 250 6 14 12 30
13 36 2 5 14 36 29 67 14 32 26 60 26 62 0 9 111 279 123 300 7 13 12 79 13
178 l1 158 -49 50 -50 49 -2506 -1 -2507 0 -37 -40z"/>
<path d="M5475 1513 c-209 -33 -344 -110 -495 -283 -65 -74 -134 -242 -155
-378 -19 -122 1 -268 53 -392 39 -92 54 -117 121 -199 41 -49 159 -151 171
-147 3 0 19 -8 35 -20 31 -22 112 -55 180 -74 22 -7 92 -13 155 -15 97 -3 129
0 205 20 173 45 308 133 411 266 111 144 158 283 157 464 -1 104 -7 148 -37
237 -42 125 -92 204 -193 305 -51 51 -97 93 -102 93 -6 0 -26 11 -46 25 -51
34 -179 81 -245 90 -60 8 -183 13 -215 8z"/>
</g>
</svg>
